Normalized EMG Linear Envelopes
nRows=248
nColumns=4

endheader
time	 med_gas_r	  soleus_r	 tib_ant_r	
3.42641	  0.006882	  0.010653	  0.005261	
3.45968	  0.006893	  0.009869	  0.005000	
3.49294	  0.006919	  0.009192	  0.004751	
3.52621	  0.006965	  0.008696	  0.004530	
3.55948	  0.007044	  0.008407	  0.004354	
3.59274	  0.007170	  0.008295	  0.004228	
3.62601	  0.007344	  0.008293	  0.004145	
3.65927	  0.007553	  0.008324	  0.004088	
3.69254	  0.007773	  0.008322	  0.004041	
3.72581	  0.007990	  0.008251	  0.003997	
3.75907	  0.008211	  0.008111	  0.003955	
3.79234	  0.008450	  0.007926	  0.003915	
3.8256	  0.008698	  0.007725	  0.003879	
3.85887	  0.008910	  0.007533	  0.003846	
3.89214	  0.009012	  0.007364	  0.003821	
3.9254	  0.008945	  0.007227	  0.003812	
3.95867	  0.008700	  0.007130	  0.003827	
3.99194	  0.008328	  0.007078	  0.003872	
4.0252	  0.007917	  0.007070	  0.003949	
4.05847	  0.007555	  0.007097	  0.004054	
4.09173	  0.007301	  0.007144	  0.004178	
4.125	  0.007169	  0.007201	  0.004304	
4.15827	  0.007143	  0.007258	  0.004409	
4.19153	  0.007189	  0.007305	  0.004472	
4.2248	  0.007280	  0.007331	  0.004486	
4.25806	  0.007399	  0.007323	  0.004461	
4.29133	  0.007534	  0.007285	  0.004423	
4.3246	  0.007680	  0.007242	  0.004400	
4.35786	  0.007833	  0.007238	  0.004414	
4.39113	  0.007995	  0.007319	  0.004473	
4.4244	  0.008168	  0.007514	  0.004574	
4.45766	  0.008348	  0.007828	  0.004710	
4.49093	  0.008519	  0.008247	  0.004869	
4.52419	  0.008663	  0.008744	  0.005042	
4.55746	  0.008761	  0.009267	  0.005215	
4.59073	  0.008803	  0.009733	  0.005362	
4.62399	  0.008790	  0.010037	  0.005442	
4.65726	  0.008727	  0.010082	  0.005407	
4.69052	  0.008620	  0.009836	  0.005234	
4.72379	  0.008473	  0.009349	  0.004939	
4.75706	  0.008295	  0.008733	  0.004575	
4.79032	  0.008110	  0.008103	  0.004194	
4.82359	  0.007952	  0.007539	  0.003834	
4.85685	  0.007852	  0.007081	  0.003513	
4.89012	  0.007818	  0.006751	  0.003252	
4.92339	  0.007828	  0.006555	  0.003091	
4.95665	  0.007846	  0.006494	  0.003100	
4.98992	  0.007841	  0.006556	  0.003391	
5.02319	  0.007806	  0.006751	  0.004148	
5.05645	  0.007759	  0.007134	  0.005671	
5.08972	  0.007733	  0.007818	  0.008402	
5.12298	  0.007770	  0.008972	  0.012898	
5.15625	  0.007911	  0.010795	  0.019748	
5.18952	  0.008193	  0.013474	  0.029419	
5.22278	  0.008639	  0.017097	  0.042030	
5.25605	  0.009252	  0.021538	  0.057153	
5.28931	  0.010005	  0.026392	  0.073739	
5.32258	  0.010849	  0.031067	  0.090330	
5.35585	  0.011729	  0.035011	  0.105497	
5.38911	  0.012592	  0.037939	  0.118268	
5.42238	  0.013389	  0.039881	  0.128303	
5.45565	  0.014084	  0.041043	  0.135810	
5.48891	  0.014675	  0.041661	  0.141430	
5.52218	  0.015216	  0.041977	  0.146212	
5.55544	  0.015812	  0.042319	  0.151583	
5.58871	  0.016592	  0.043141	  0.159160	
5.62198	  0.017681	  0.044912	  0.170436	
5.65524	  0.019185	  0.047945	  0.186512	
5.68851	  0.021171	  0.052269	  0.207923	
5.72177	  0.023637	  0.057616	  0.234436	
5.75504	  0.026471	  0.063530	  0.264824	
5.78831	  0.029462	  0.069513	  0.296898	
5.82157	  0.032355	  0.075146	  0.328030	
5.85484	  0.034908	  0.080117	  0.355932	
5.8881	  0.036927	  0.084187	  0.379147	
5.92137	  0.038285	  0.087196	  0.396988	
5.95464	  0.038960	  0.089179	  0.409231	
5.9879	  0.039091	  0.090537	  0.416051	
6.02117	  0.038995	  0.092061	  0.418305	
6.05444	  0.039075	  0.094731	  0.417735	
6.0877	  0.039664	  0.099361	  0.416571	
6.12097	  0.040886	  0.106259	  0.416553	
6.15423	  0.042614	  0.115060	  0.418031	
6.1875	  0.044549	  0.124756	  0.419911	
6.22077	  0.046365	  0.133937	  0.420570	
6.25403	  0.047835	  0.141203	  0.419048	
6.2873	  0.048883	  0.145621	  0.415620	
6.32056	  0.049562	  0.147034	  0.411442	
6.35383	  0.049997	  0.146104	  0.407800	
6.3871	  0.050360	  0.144103	  0.405651	
6.42036	  0.050871	  0.142548	  0.405664	
6.45363	  0.051785	  0.142776	  0.408506	
6.4869	  0.053322	  0.145531	  0.415004	
6.52016	  0.055536	  0.150665	  0.425959	
6.55343	  0.058207	  0.157114	  0.441585	
6.58669	  0.060872	  0.163266	  0.460814	
6.61996	  0.063016	  0.167648	  0.481017	
6.65323	  0.064328	  0.169637	  0.498688	
6.68649	  0.064836	  0.169759	  0.510947	
6.71976	  0.064841	  0.169354	  0.516842	
6.75302	  0.064700	  0.169814	  0.517391	
6.78629	  0.064614	  0.171857	  0.514385	
6.81956	  0.064545	  0.175301	  0.509105	
6.85282	  0.064278	  0.179385	  0.501932	
6.88609	  0.063576	  0.183313	  0.492877	
6.91935	  0.062314	  0.186539	  0.482331	
6.95262	  0.060528	  0.188703	  0.471528	
6.98589	  0.058391	  0.189482	  0.462535	
7.01915	  0.056158	  0.188687	  0.457665	
7.05242	  0.054110	  0.186528	  0.458402	
7.08569	  0.052515	  0.183704	  0.464284	
7.11895	  0.051563	  0.181075	  0.472539	
7.15222	  0.051296	  0.179096	  0.478934	
7.18548	  0.051577	  0.177506	  0.479572	
7.21875	  0.052152	  0.175550	  0.472713	
7.25202	  0.052788	  0.172620	  0.459617	
7.28528	  0.053379	  0.168846	  0.444020	
7.31855	  0.053961	  0.165186	  0.430555	
7.35181	  0.054617	  0.162945	  0.422958	
7.38508	  0.055365	  0.163043	  0.422784	
7.41835	  0.056106	  0.165553	  0.429095	
7.45161	  0.056665	  0.169777	  0.439133	
7.48488	  0.056893	  0.174748	  0.449620	
7.51815	  0.056749	  0.179698	  0.458080	
7.55141	  0.056300	  0.184197	  0.463659	
7.58468	  0.055695	  0.188058	  0.467288	
7.61794	  0.055172	  0.191352	  0.471320	
7.65121	  0.055096	  0.194645	  0.478804	
7.68448	  0.055934	  0.199131	  0.492426	
7.71774	  0.058073	  0.206196	  0.513234	
7.75101	  0.061546	  0.216354	  0.539567	
7.78427	  0.065842	  0.228192	  0.566987	
7.81754	  0.069992	  0.238287	  0.589796	
7.85081	  0.072966	  0.242599	  0.603693	
7.88407	  0.074157	  0.238693	  0.607895	
7.91734	  0.073653	  0.227299	  0.605068	
7.9506	  0.072127	  0.212113	  0.599169	
7.98387	  0.070453	  0.198018	  0.593123	
8.01714	  0.069310	  0.188982	  0.588200	
8.0504	  0.068985	  0.186863	  0.584957	
8.08367	  0.069427	  0.191463	  0.584139	
8.11694	  0.070418	  0.201302	  0.586404	
8.1502	  0.071730	  0.214357	  0.591374	
8.18347	  0.073156	  0.228336	  0.597203	
8.21673	  0.074439	  0.240679	  0.601211	
8.25	  0.075204	  0.248807	  0.601050	
8.28327	  0.075010	  0.250897	  0.595594	
8.31653	  0.073550	  0.246798	  0.585170	
8.3498	  0.070869	  0.238292	  0.571252	
8.38306	  0.067438	  0.228337	  0.556026	
8.41633	  0.064033	  0.219745	  0.542034	
8.4496	  0.061453	  0.214225	  0.531729	
8.48286	  0.060250	  0.212273	  0.526728	
8.51613	  0.060591	  0.213625	  0.527183	
8.5494	  0.062302	  0.217674	  0.531960	
8.58266	  0.065020	  0.223608	  0.539722	
8.61593	  0.068341	  0.230490	  0.549909	
8.64919	  0.071895	  0.237428	  0.562632	
8.68246	  0.075361	  0.243704	  0.577738	
8.71573	  0.078489	  0.248741	  0.594256	
8.74899	  0.081174	  0.252144	  0.610933	
8.78226	  0.083550	  0.254028	  0.627218	
8.81552	  0.085951	  0.255390	  0.643434	
8.84879	  0.088651	  0.257855	  0.659662	
8.88206	  0.091512	  0.262634	  0.674262	
8.91532	  0.093848	  0.269416	  0.683542	
8.94859	  0.094745	  0.276291	  0.683422	
8.98185	  0.093682	  0.281038	  0.672205	
9.01512	  0.091002	  0.282794	  0.652270	
9.04839	  0.087823	  0.282642	  0.628977	
9.08165	  0.085399	  0.282512	  0.607466	
9.11492	  0.084400	  0.283332	  0.590063	
9.14819	  0.084613	  0.284015	  0.576402	
9.18145	  0.085229	  0.282171	  0.565624	
9.21472	  0.085409	  0.275961	  0.558155	
9.24798	  0.084707	  0.265659	  0.555398	
9.28125	  0.083151	  0.253769	  0.558063	
9.31452	  0.081083	  0.243682	  0.565071	
9.34778	  0.078961	  0.237853	  0.574161	
9.38105	  0.077209	  0.236730	  0.583528	
9.41431	  0.076119	  0.238974	  0.592938	
9.44758	  0.075760	  0.242518	  0.603313	
9.48085	  0.075940	  0.245538	  0.615206	
9.51411	  0.076280	  0.246781	  0.627490	
9.54738	  0.076378	  0.245497	  0.637362	
9.58065	  0.076001	  0.241480	  0.641584	
9.61391	  0.075185	  0.235247	  0.638007	
9.64718	  0.074174	  0.227988	  0.626475	
9.68044	  0.073280	  0.221078	  0.608892	
9.71371	  0.072726	  0.215516	  0.588601	
9.74698	  0.072565	  0.211697	  0.569338	
9.78024	  0.072696	  0.209591	  0.554133	
9.81351	  0.072964	  0.209040	  0.544597	
9.84677	  0.073272	  0.209883	  0.540848	
9.88004	  0.073598	  0.211839	  0.541877	
9.91331	  0.073916	  0.214320	  0.546114	
9.94657	  0.074114	  0.216436	  0.552104	
9.97984	  0.074031	  0.217335	  0.559170	
10.0131	  0.073597	  0.216748	  0.567714	
10.0464	  0.072929	  0.215359	  0.578882	
10.0796	  0.072302	  0.214713	  0.593757	
10.1129	  0.072042	  0.216681	  0.612667	
10.1462	  0.072411	  0.222747	  0.634952	
10.1794	  0.073532	  0.233447	  0.658947	
10.2127	  0.075350	  0.248102	  0.681754	
10.246	  0.077619	  0.264814	  0.698927	
10.2792	  0.079893	  0.280610	  0.704853	
10.3125	  0.081532	  0.291765	  0.694421	
10.3458	  0.081735	  0.294475	  0.665428	
10.379	  0.079717	  0.285940	  0.620109	
10.4123	  0.075020	  0.265530	  0.564530	
10.4456	  0.067833	  0.235391	  0.506110	
10.4788	  0.059033	  0.199945	  0.450870	
10.5121	  0.049874	  0.164396	  0.401974	
10.5454	  0.041485	  0.132977	  0.359892	
10.5786	  0.034494	  0.107850	  0.323374	
10.6119	  0.028996	  0.089115	  0.290421	
10.6452	  0.024776	  0.075657	  0.259049	
10.6784	  0.021581	  0.066137	  0.227979	
10.7117	  0.019242	  0.059533	  0.197029	
10.745	  0.017618	  0.055052	  0.166931	
10.7782	  0.016509	  0.051812	  0.138742	
10.8115	  0.015639	  0.048783	  0.113433	
10.8448	  0.014772	  0.045154	  0.091893	
10.878	  0.013815	  0.040763	  0.075004	
10.9113	  0.012843	  0.036132	  0.063319	
10.9446	  0.011994	  0.031998	  0.056527	
10.9778	  0.011364	  0.028736	  0.053267	
11.0111	  0.010960	  0.026162	  0.051633	
11.0444	  0.010716	  0.023806	  0.050061	
11.0776	  0.010544	  0.021352	  0.047927	
11.1109	  0.010369	  0.018846	  0.045474	
11.1442	  0.010147	  0.016580	  0.043255	
11.1774	  0.009880	  0.014823	  0.041632	
11.2107	  0.009618	  0.013661	  0.040628	
11.244	  0.009431	  0.013010	  0.040054	
11.2772	  0.009385	  0.012713	  0.039669	
11.3105	  0.009518	  0.012624	  0.039247	
11.3437	  0.009832	  0.012641	  0.038602	
11.377	  0.010293	  0.012702	  0.037659	
11.4103	  0.010824	  0.012790	  0.036518	
11.4435	  0.011312	  0.012922	  0.035454	
11.4768	  0.011627	  0.013125	  0.034810	
11.5101	  0.011658	  0.013405	  0.034842	
11.5433	  0.011351	  0.013732	  0.035585	
11.5766	  0.010720	  0.014050	  0.036858	
11.6099	  0.009843	  0.014311	  0.038400	
11.6431	  0.008834	  0.014510	  0.040021	
